<svg width="92" height="82" viewBox="0 0 92 82" fill="none" xmlns="http://www.w3.org/2000/svg">
<g clip-path="url(#clip0_32_533)">
<path d="M26.8421 76.5789C24.7199 77.3246 22.6265 78.0704 20.5044 78.8448C16.6784 80.2851 12.483 80.4162 8.57455 79.2177C5.82151 78.3859 3.06848 77.4107 0 77.8983C10.3239 71.5306 15.027 61.4627 18.6116 50.3049C17.2638 50.0754 16.002 49.932 14.7689 49.6739C12.9909 49.301 11.2129 48.9855 9.49222 48.4405C7.88629 47.9242 6.5958 46.9203 6.19432 45.1706C5.76416 43.2775 6.62448 41.7573 8.71793 40.696C11.5857 39.2618 14.4821 37.9424 17.3785 36.5369C19.3573 35.5903 21.3647 34.6725 23.2861 33.6112C23.884 33.2558 24.3325 32.6951 24.5479 32.0336C26.3259 25.6085 28.0465 19.1548 29.7672 12.701C31.2584 7.13643 36.8505 1.88738 42.2992 1.22766C43.561 1.45713 44.6507 1.60055 45.7118 1.77265C53.0532 2.97735 58.7027 6.82092 62.4881 13.1886C66.0728 19.2121 67.5066 25.9527 67.5066 32.8941C67.5066 39.9789 67.0191 47.0637 66.675 54.1485C66.589 56.185 66.2161 58.1928 66.0154 60.2293C65.6713 63.4706 65.1838 66.7405 65.0404 70.0104C64.9257 72.7066 65.1838 75.4315 65.2698 78.1564C63.2337 77.2959 61.255 76.0912 59.1328 75.661C56.6666 75.1734 54.0569 75.4028 51.3039 75.2021C49.9274 74.8579 48.7229 74.4276 47.5185 74.3989C45.7405 74.3416 43.9338 74.5997 42.1271 74.6284C39.8329 74.6571 38.9439 73.395 39.6895 71.1864C40.0337 70.2112 40.4638 69.2933 40.894 68.318C40.9513 68.2894 40.9513 68.2607 40.98 68.232C40.9107 68.2832 40.8331 68.322 40.7506 68.3467C40.5339 68.4043 40.3228 68.4811 40.1197 68.5762C35.9328 70.9569 31.7746 73.309 27.5877 75.7184C27.3296 75.8905 27.1288 76.2633 26.8421 76.5789ZM41.4446 29.3947C44.0829 26.4117 44.6565 22.9697 43.452 19.2408C42.8498 17.4051 41.6167 15.9422 39.5806 15.598C37.4584 15.2251 35.7091 16.1143 34.4473 17.778C32.2392 20.675 31.8663 23.8875 33.0995 27.2435C34.476 31.0297 38.0893 31.9762 41.4446 29.3947ZM64.4726 25.2356C64.7593 21.9944 64.0711 19.0687 61.5475 16.8027C59.0239 14.5367 55.4679 15.1965 54.0913 18.3229C52.5714 21.7936 52.8869 25.207 54.9517 28.3908C55.812 29.7102 57.0164 30.5994 58.651 30.7715C61.8342 31.1157 63.899 29.2226 64.4726 25.2356ZM52.6001 33.5538C51.8258 32.808 51.0229 32.722 50.2772 33.5825C48.9007 35.1314 48.7 35.074 47.1801 33.6685C46.9057 33.4604 46.5857 33.3206 46.2466 33.2608C45.9075 33.2009 45.559 33.2227 45.23 33.3243C44.8285 33.4964 44.5418 34.529 44.6278 35.1027C44.9719 36.9098 46.6926 37.9997 48.8434 37.971C50.7934 37.9424 52.5428 36.6803 52.8869 34.988C52.9672 34.5864 52.7951 34.1562 52.6001 33.5538Z" fill="#FDFEFF"/>
<path d="M65.3559 78.1851C65.2125 75.4028 64.9544 72.6779 65.0691 69.9816C65.2125 66.7117 65.7 63.4705 66.0441 60.2006C66.2736 58.1641 66.6177 56.1563 66.7037 54.1197C67.0478 47.035 67.5354 39.9502 67.5354 32.8654C67.5354 25.9527 66.1015 19.2121 62.5168 13.1599C58.7314 6.79219 53.0819 2.97731 45.7405 1.74392C44.6795 1.57182 43.5897 1.4284 42.4426 1.19894C44.9376 -0.00576405 47.6332 -0.120498 50.3576 0.0802856C54.6592 0.424486 58.6454 1.7726 62.058 4.52621C64.6389 6.62009 66.5317 9.23028 67.3633 12.4715C69.342 20.216 71.2921 27.9605 73.3569 35.9058C74.1312 37.8563 74.676 39.692 75.4503 41.413C76.5114 43.7364 78.4328 44.3674 80.6409 43.1053C83.1645 41.6998 85.5735 40.0649 88.0397 38.5447C89.2442 37.7989 90.4773 37.1392 91.6817 36.4221C92.3413 37.9423 91.8825 39.4339 91.1369 40.6672C89.703 43.0767 88.0397 45.3713 86.4051 47.6373C85.2293 49.2723 83.394 49.7025 81.5013 49.9033C80.3828 50.018 79.2357 50.1614 77.8592 50.3049C78.5188 52.3127 79.0924 54.2058 79.8093 56.0415C82.2756 62.61 85.6882 68.5475 90.9361 73.3376C92.0545 74.3702 92.0259 75.0299 90.7354 75.4028C88.3265 76.1199 86.4625 77.6688 84.5411 79.1316C79.0637 83.3481 73.4142 82.4015 67.7648 79.5906C66.902 79.233 66.0917 78.7602 65.3559 78.1851Z" fill="#E3ECF1"/>
<path d="M91.6301 36.3648C90.4256 37.1679 89.1925 37.8563 87.988 38.5734C85.5218 40.0936 83.1129 41.6999 80.5893 43.1341C78.3811 44.3961 76.4597 43.7364 75.3986 41.4418C74.5957 39.7208 74.0795 37.885 73.3625 36.0206C77.3487 35.0167 81.3635 34.0414 85.4071 33.1809C88.1888 32.6216 90.6206 33.8693 91.6301 36.3648Z" fill="#FDFEFF"/>
<path d="M26.9855 76.6075C27.118 76.2397 27.3577 75.92 27.6737 75.6897C31.832 73.2803 36.0189 70.9282 40.2058 68.5475C40.4088 68.4524 40.62 68.3756 40.8367 68.3181H40.9514C40.5499 69.2646 40.1197 70.2112 39.7756 71.1577C39.03 73.3663 39.919 74.6284 42.2132 74.5997C44.0199 74.571 45.7979 74.3129 47.6045 74.3702C48.809 74.3989 49.9848 74.8292 51.2466 75.1734C47.7479 76.6075 44.2206 77.9843 40.6359 79.2464C38.0263 80.1643 35.56 79.9348 33.2945 78.0417C31.4878 76.5789 29.3083 76.5215 26.9855 76.6075Z" fill="#E3ECF1"/>
<path d="M41.3528 29.4808C38.0836 31.9762 34.4703 31.0297 33.0937 27.2721C31.8606 23.9162 32.2621 20.675 34.4416 17.8066C35.7034 16.143 37.424 15.2251 39.5748 15.6267C41.6109 15.9996 42.8441 17.4337 43.4463 19.2695C44.6507 22.9696 44.0772 26.4116 41.3528 29.4808Z" fill="#373A43"/>
<path d="M64.4669 25.3561C63.8933 29.1997 61.8286 31.1215 58.674 30.7773C57.0394 30.6052 55.835 29.716 54.9747 28.3965C52.8812 25.2127 52.5657 21.7994 54.1143 18.3287C55.4908 15.2022 59.0182 14.5138 61.5705 16.8085C64.0654 19.0687 64.7823 22.0088 64.4669 25.3561Z" fill="#373A43"/>
<path d="M52.6805 33.6398C52.7952 34.1275 52.9959 34.5864 52.9099 34.9593C52.5657 36.6516 50.8164 37.9137 48.8664 37.9424C46.7156 37.971 44.9949 36.8811 44.6508 35.074C44.5361 34.5004 44.8515 33.4964 45.253 33.2956C45.7692 33.0662 46.7729 33.267 47.2031 33.6398C48.6943 35.0453 48.9237 35.1027 50.3002 33.5538C51.0458 32.722 51.8201 32.8138 52.6805 33.6398Z" fill="#373A43"/>
<path d="M40.9226 68.318C40.9513 68.2894 41.0086 68.2607 41.0373 68.2033C41.0373 68.232 41.0086 68.2607 40.9513 68.2894L40.9226 68.318Z" fill="#E3ECF1"/>
</g>
<defs>
<clipPath id="clip0_32_533">
<rect width="92" height="82" fill="white"/>
</clipPath>
</defs>
</svg>
