<svg width="50" height="50" viewBox="0 0 50 50" fill="none" xmlns="http://www.w3.org/2000/svg">
<path d="M22.7084 4.37503C13.125 5.4167 5.41668 13.125 4.37502 22.5C3.12502 32.9167 9.58335 41.875 18.75 44.7917V40C18.75 40 17.9167 40.2084 16.875 40.2084C13.9584 40.2084 12.7084 37.7084 12.5 36.25C12.2917 35.4167 11.875 34.7917 11.25 34.1667C10.625 33.9584 10.4167 33.9584 10.4167 33.75C10.4167 33.3334 11.0417 33.3334 11.25 33.3334C12.5 33.3334 13.5417 34.7917 13.9584 35.4167C15 37.0834 16.25 37.5 16.875 37.5C17.7084 37.5 18.3334 37.2917 18.75 37.0834C18.9584 35.625 19.5834 34.1667 20.8334 33.3334C16.0417 32.2917 12.5 29.5834 12.5 25C12.5 22.7084 13.5417 20.4167 15 18.75C14.7917 18.3334 14.5834 17.2917 14.5834 15.8334C14.5834 15 14.5834 13.75 15.2084 12.5C15.2084 12.5 18.125 12.5 21.0417 15.2084C22.0834 14.7917 23.5417 14.5834 25 14.5834C26.4584 14.5834 27.9167 14.7917 29.1667 15.2084C31.875 12.5 35 12.5 35 12.5C35.4167 13.75 35.4167 15 35.4167 15.8334C35.4167 17.5 35.2083 18.3334 35 18.75C36.4584 20.4167 37.5 22.5 37.5 25C37.5 29.5834 33.9584 32.2917 29.1667 33.3334C30.4167 34.375 31.25 36.25 31.25 38.125V45C39.7917 42.2917 45.8334 34.375 45.8334 25.2084C45.8334 12.7084 35.2084 2.9167 22.7084 4.37503Z" fill="white"/>
</svg>
