<svg width="50" height="50" viewBox="0 0 50 50" fill="none" xmlns="http://www.w3.org/2000/svg">
<path d="M16.6667 6.25C10.9229 6.25 6.25 10.9229 6.25 16.6667V33.3333C6.25 39.0771 10.9229 43.75 16.6667 43.75H33.3333C39.0771 43.75 43.75 39.0771 43.75 33.3333V16.6667C43.75 10.9229 39.0771 6.25 33.3333 6.25H16.6667ZM16.6667 10.4167H33.3333C36.7792 10.4167 39.5833 13.2208 39.5833 16.6667V33.3333C39.5833 36.7792 36.7792 39.5833 33.3333 39.5833H16.6667C13.2208 39.5833 10.4167 36.7792 10.4167 33.3333V16.6667C10.4167 13.2208 13.2208 10.4167 16.6667 10.4167ZM35.4167 12.5C34.8641 12.5 34.3342 12.7195 33.9435 13.1102C33.5528 13.5009 33.3333 14.0308 33.3333 14.5833C33.3333 15.1359 33.5528 15.6658 33.9435 16.0565C34.3342 16.4472 34.8641 16.6667 35.4167 16.6667C35.9692 16.6667 36.4991 16.4472 36.8898 16.0565C37.2805 15.6658 37.5 15.1359 37.5 14.5833C37.5 14.0308 37.2805 13.5009 36.8898 13.1102C36.4991 12.7195 35.9692 12.5 35.4167 12.5ZM25 14.5833C19.2562 14.5833 14.5833 19.2562 14.5833 25C14.5833 30.7437 19.2562 35.4167 25 35.4167C30.7437 35.4167 35.4167 30.7437 35.4167 25C35.4167 19.2562 30.7437 14.5833 25 14.5833ZM25 18.75C28.4458 18.75 31.25 21.5542 31.25 25C31.25 28.4458 28.4458 31.25 25 31.25C21.5542 31.25 18.75 28.4458 18.75 25C18.75 21.5542 21.5542 18.75 25 18.75Z" fill="white"/>
</svg>
