<svg width="397" height="553" viewBox="0 0 397 553" fill="none" xmlns="http://www.w3.org/2000/svg">
<g clip-path="url(#clip0_30_471)">
<path d="M5.3 313.98C3.9 313.78 2.4 313.48 0 313.08C5.8 305.78 11.1 299.08 16.4 292.38C28.4 277.28 40.5 262.18 52.5 247.08C60.2 237.38 59.4 229.98 50.3 220.08C45.7 215.08 40.8 210.08 37.4 204.28C25.3 183.88 33.1 160.28 55.5 148.38C59.8 146.08 64.2 144.18 68.5 142.08C81.3 135.78 88.7 124.98 93.4 112.08C98.5 97.98 102.7 83.58 107.8 69.48C122.2 29.48 150.8 6.48003 192.7 0.980028C224.3 -3.11997 252.8 5.58003 276.4 27.48C290.5 40.58 299.4 57.08 305.7 75.08C308.7 83.58 312.2 91.88 315.6 100.08C321.4 113.88 331.9 120.78 346.9 121.78C362.5 122.78 373.2 134.38 371.2 148.28C370.3 154.18 367.7 160.08 365 165.48C360 175.38 357.4 185.68 358.5 196.78C358.73 199.773 359.164 202.746 359.8 205.68C362.5 216.98 360.1 226.68 350.1 233.28C342.4 238.38 343.2 246.88 347.9 252.68C362.6 270.58 377.1 288.48 391.7 306.48C393.1 308.28 394.4 310.18 396.5 313.08C392.7 313.28 390.1 313.48 386.5 313.58H10.4C8.6 313.78 7 313.88 5.3 313.98ZM355.2 145.98C351.7 137.68 343.2 133.18 333.6 135.28C319.5 138.28 305.5 141.58 290.9 144.28C284.1 117.28 277.4 90.18 270.4 63.18C267.5 51.88 261 42.78 251.9 35.48C240 25.88 226.1 21.08 211.1 19.98C201.7 19.28 192.2 19.68 182.5 23.58C164.2 26.18 144.6 44.48 139.5 63.88C133.5 86.38 127.5 108.88 121.3 131.28C120.549 133.586 118.985 135.541 116.9 136.78C110.2 140.48 103.2 143.68 96.3 146.98C86.3 151.78 76.1 156.48 66.1 161.48C58.8 165.18 55.8 170.48 57.3 177.08C58.7 183.18 63.2 186.78 68.8 188.48C74.8455 190.266 80.989 191.702 87.2 192.78C91.5 193.68 95.8 194.18 100.6 194.98C88.1 233.88 71.7 268.98 35.7 291.18C46.4 289.38 55.9 292.88 65.6 295.78C79.2292 299.957 93.8582 299.5 107.2 294.48C114.5 291.78 121.9 289.28 130.2 286.78C137.8 286.48 145.5 286.68 151.5 291.78C159.4 298.38 168 299.18 177.1 295.98C189.6 291.58 201.9 286.78 215.2 282.08C224.1 282.38 233.2 281.68 241.8 283.28C249.2 284.68 256.1 288.98 263.5 292.48C266.2 294.08 268.8 295.98 271.6 297.38C291.4 307.18 311 310.48 330.1 295.78C336.8 290.58 343.2 285.18 351.7 282.78C356.2 281.48 356.3 279.18 352.4 275.58C334.1 258.88 322.2 238.18 313.6 215.28C311.2 208.88 309.2 202.28 306.8 195.28C311.7 194.78 315.6 194.28 319.5 193.88C326.1 193.18 332.5 191.68 336.6 185.98C342.3 177.98 348 170.08 353.1 161.68C355.9 157.18 357.5 151.98 355.22 145.98H355.2Z" fill="#7BDAE6"/>
<path d="M377.4 325.78C372.6 331.98 367.8 338.28 362.3 344.68C353.7 344.48 345.9 343.98 338.2 343.88C298.4 343.48 258.6 343.147 218.8 342.88C209.6 342.88 200.4 343.68 191.2 343.78C173.1 343.98 155 343.78 137 343.78C123.5 343.78 110 343.88 96.5 343.78C81.4 343.58 66.4 343.18 51.3 342.88C49.6485 342.882 48.0033 343.084 46.4 343.48C41.4 344.58 36.5 345.78 31.6 346.88C27.4 341.78 23.1 336.58 19.1 331.18C22.6 329.58 26 329.08 29.3 328.28C39 326.08 48.6 326.08 58.4 326.68C68.7 327.28 79.1 326.68 89.4 326.88C106.6 327.08 123.8 327.68 141 327.78C150.4 327.88 159.7 326.98 169.1 326.98C176.1 326.98 183 327.88 190 327.78C204.6 327.68 219.2 327.08 233.9 326.88C270.4 326.48 306.8 326.18 343.3 325.88C349.4 325.88 355.5 326.78 361.7 326.78C366.8 326.68 372.1 326.08 377.4 325.78Z" fill="#D4F1F5"/>
<path d="M31.5 347.08C36.3314 345.589 41.2383 344.354 46.2 343.38C47.8119 343.033 49.4519 342.832 51.1 342.78C66.2 343.08 81.2 343.48 96.3 343.68C109.8 343.88 123.3 343.68 136.8 343.68C154.9 343.68 173 343.78 191 343.68C200.2 343.58 209.4 342.78 218.6 342.78C258.4 342.98 298.2 343.313 338 343.78C345.8 343.88 353.6 344.38 361.8 344.78C358.282 350.326 354.407 355.637 350.2 360.68C347.858 361.19 345.487 361.557 343.1 361.78C327.4 361.88 311.6 361.98 295.9 361.78C275.7 361.58 255.5 360.98 235.3 360.88C221.4 360.88 207.4 361.68 193.5 361.78C185.1 361.88 176.7 360.98 168.4 360.98C160.9 360.98 153.3 361.78 145.8 361.78C135.4 361.68 125.1 360.88 114.7 360.98C102.2 360.98 89.8 361.68 77.3 361.88C71.9 361.98 66.4 361.28 61 361.28C55.1 361.28 49.2 361.68 43.4 361.98C39.5 356.98 35.6 352.18 31.5 347.08Z" fill="#E1F3F8"/>
<path d="M43.5 362.08C49.3119 361.442 55.1532 361.108 61 361.08C66.4 361.08 71.9 361.78 77.3 361.68C89.8 361.48 102.2 360.88 114.7 360.78C125.1 360.78 135.4 361.58 145.8 361.58C153.3 361.58 160.9 360.78 168.4 360.78C176.8 360.78 185.2 361.68 193.5 361.58C207.5 361.48 221.4 360.68 235.3 360.68C255.5 360.78 275.7 361.38 295.9 361.58C311.6 361.78 327.4 361.68 343.1 361.58C345.2 361.58 347.3 360.98 349.9 360.68C346.1 366.48 342.8 373.58 337.3 377.88C333.5 380.98 326.7 381.38 321.3 381.38C310.4 381.38 299.5 380.18 288.6 379.68C278.2 379.18 267.7 378.78 257.2 378.68C250.9 378.68 244.6 379.58 238.3 379.58C228.7 379.48 219 378.68 209.4 378.68C195.4 378.78 181.3 379.58 167.3 379.58C148.4 379.58 129.5 379.08 110.6 378.58C107 378.48 103.5 377.28 99.2 376.38C95.6 370.88 92.1 368.68 86.8 371.08C84.4 372.18 83.5 376.68 81.9 379.68C74.1 384.58 65 382.88 56.6 384.58C52.8 385.38 51 383.48 50 379.28C48.8 373.58 45.9 368.08 43.5 362.08Z" fill="#E6F3F6"/>
<path d="M377.7 325.58C372.1 326.08 366.8 326.68 361.5 326.68C355.4 326.68 349.2 325.78 343.1 325.78C306.6 325.98 270.2 326.38 233.7 326.78C219.1 326.98 204.5 327.58 189.8 327.68C182.8 327.78 175.9 326.78 168.9 326.88C159.5 326.88 150.2 327.78 140.8 327.68C123.6 327.58 106.4 326.98 89.2 326.78C78.9 326.68 68.5 327.28 58.2 326.58C48.4 325.98 38.9 325.98 29.1 328.18C25.5684 328.762 22.0902 329.632 18.7 330.78C14 325.38 9.59999 320.08 5.29999 314.28C6.94018 313.911 8.6192 313.743 10.3 313.78H385.9C383.416 317.881 380.677 321.822 377.7 325.58Z" fill="#CEF0F6"/>
<path d="M28.1 433.78C28 437.78 27.9 441.28 28 444.78C28.1 451.48 31.2 454.68 37.7 454.68C46.4 454.78 55 454.78 63.7 454.68C70.3 454.68 71.9 452.78 71.6 444.98C64.6 444.98 57.4 445.18 50.4 444.88C48.3966 444.761 46.5064 443.912 45.0874 442.493C43.6683 441.074 42.8189 439.183 42.7 437.18C42.4 433.48 45.3 429.68 49.2 428.78C50.1909 428.614 51.1959 428.547 52.2 428.58C61.7 428.58 71.2 428.48 80.7 428.48C86.5 428.48 88.9 430.78 89.1 436.68C89.2331 441.519 89.0662 446.362 88.6 451.18C87.5 461.18 79.5 469.98 69.5 470.68C57.0478 471.53 44.5522 471.53 32.1 470.68C20.9 469.88 12.1 460.28 11.5 449.08C10.9 438.088 10.9 427.072 11.5 416.08C11.8481 410.107 14.4443 404.487 18.7668 400.35C23.0892 396.213 28.8175 393.866 34.8 393.78C49.1 393.48 63.5 393.58 77.8 393.68C83.5 393.68 87.4 397.58 87.3 402.48C87.2 407.18 83.5 410.38 77.6 410.48C64.8 410.58 51.9 410.58 39.1 410.68C30.7 410.78 28.4 413.08 28.3 421.28C28.1 425.33 28.1 429.33 28.1 433.78Z" fill="#373A43"/>
<path d="M102.1 380.33C103.6 376.93 104.5 372.33 106.9 371.33C112.2 369.03 115.7 371.13 118.8 376.63C119 387.03 119 397.13 119 407.73C129.7 403.33 140.3 401.63 151.3 404.83C163.6 408.43 171.7 418.53 172.1 431.43C172.5 441.93 172.3 452.43 172.2 462.93C172.24 464.058 172.053 465.183 171.649 466.237C171.245 467.291 170.632 468.253 169.848 469.065C169.064 469.877 168.125 470.522 167.085 470.963C166.046 471.404 164.929 471.631 163.8 471.63C158.8 471.73 155.3 468.13 155.2 462.73C155.1 453.23 155.3 443.73 155.2 434.23C155.1 426.03 151.4 421.63 143.1 420.43C139.312 419.82 135.436 420.08 131.763 421.188C128.09 422.297 124.718 424.226 121.9 426.83C120.3 428.23 119.3 431.13 119.2 433.33C118.9 442.93 119.2 452.63 119 462.33C118.9 469.33 113.5 473.13 107.2 470.93C102.7 469.43 102.1 465.83 102.1 461.73C102.2 441.43 102.233 421.13 102.2 400.83C102.3 393.98 102.22 387.38 102.1 380.33Z" fill="#373A43"/>
<path d="M249.22 446.48C244.32 460.88 234.82 469.78 220.12 471.68C205.12 473.58 193.02 467.88 185.12 454.68C177.82 442.48 179.12 425.98 188.12 415.48C198.62 403.18 216.32 399.28 230.62 406.18C245.72 413.28 252.82 428.38 249.22 446.48ZM203.32 450.38C210.52 456.08 218.62 456.78 225.32 452.28C231.72 447.98 234.82 439.78 232.62 432.68C230.42 425.58 224.42 420.38 217.72 419.78C210.12 419.08 202.92 422.68 199.52 429.38C195.7 436.88 197.1 443.78 203.3 450.38H203.32Z" fill="#373A43"/>
<path d="M349.5 385.38C353.4 387.08 354.7 389.88 354.6 393.58V403.48C359.2 403.48 363.6 403.38 368.1 403.48C374.3 403.68 377.9 406.78 377.9 411.68C377.9 416.58 374.3 419.78 368.2 419.98C363.9 420.08 359.6 419.98 354.8 419.98C354.8 430.58 354.5 440.48 355.1 450.38C355.2 452.28 358.7 454.68 361.1 455.48C363.5 456.28 366.7 455.48 369.5 455.78C374.7 456.28 377.7 459.88 377.6 464.78C377.4 469.48 374.3 472.28 369 472.48C366.334 472.597 363.663 472.563 361 472.38C346.2 471.28 338 462.68 337.7 447.88C337.5 438.78 337.7 429.58 337.7 420.48C326.3 419.58 322.9 417.48 322.9 411.48C322.9 406.08 326.3 404.08 337.3 403.08C338.6 397.48 335.1 390.58 341.2 386.48C343.22 385.33 346.4 385.68 349.5 385.38Z" fill="#373A43"/>
<path d="M257.6 417.18C261.6 407.48 268.6 402.98 278.6 402.88C283.9 402.78 289.3 402.78 294.6 402.98C300.9 403.18 304.9 406.88 304.5 411.88C304.1 416.68 299.5 420.18 293.7 419.88C288.7 419.58 283.8 418.88 278.8 418.98C277 419.08 275.3 421.18 273.5 422.38C274.9 423.78 276 425.88 277.7 426.58C282.6 428.58 287.8 429.98 292.7 431.78C304.5 436.18 309.4 443.98 307.5 454.98C305.8 464.78 297.1 471.58 285.6 471.48C278.967 471.332 272.351 470.73 265.8 469.68C259.8 468.78 256.9 465.08 258 460.28C259.1 455.48 264.5 452.18 269.5 452.98C273.6 453.68 277.7 454.48 281.8 455.18C283.6 455.48 285.6 455.88 287.2 455.28C288.8 454.68 291.1 453.28 291.4 451.98C291.7 450.68 290 448.18 288.6 447.58C284.2 445.58 279.5 444.48 275.1 442.58C271.3 440.98 267.3 439.48 264 437.08C257.4 432.33 255.6 425.38 257.6 417.18Z" fill="#373A43"/>
<path d="M224.7 535.08C221 539.28 216.4 539.68 211.7 539.58H203.5C203.5 542.68 204 545.58 203.3 548.18C202.9 549.88 200.8 551.08 199.5 552.48C198.1 550.98 195.4 549.58 195.4 548.08C194.9 537.98 195 527.78 194.9 517.58C194.9 513.68 197.1 511.88 200.9 511.98C204.7 512.08 208.2 512.08 211.9 512.08C225.6 511.98 231.7 522.58 224.7 535.08ZM208.4 531.98C210.5 531.88 212.7 531.58 214.8 531.68C217.6 531.78 218.6 530.38 218.9 527.88C219.7 522.38 217.5 519.78 211.9 519.78H203.9V532.38C205.3 532.33 206.4 532.18 208.4 531.98Z" fill="#DF212C"/>
<path d="M154 540.18C157.7 531.98 161.1 523.98 164.8 516.18C165.7 514.38 168 511.88 169.5 511.98C171.4 512.08 173.9 514.18 174.9 516.08C179.8 525.88 184.1 535.98 188.8 545.88C190 548.48 190.3 551.18 187.4 552.18C185.8 552.68 182.2 551.28 181.8 550.08C179.8 543.98 175.5 543.88 170.4 544.48C168.905 544.697 167.384 544.663 165.9 544.38C162.6 543.78 160.6 544.88 159.7 548.28C159.4 549.38 158.7 550.78 157.9 551.08C156.2 551.68 154 552.18 152.6 551.48C151.6 550.98 151 548.38 151.2 546.98C151.6 544.78 152.9 542.68 154 540.18ZM171.1 527.18C170.668 526.567 170.267 525.933 169.9 525.28C168 529.38 166.2 533.18 164.3 537.28H175.6C174 533.78 172.6 530.78 171.1 527.18Z" fill="#DF212C"/>
<path d="M242.22 528.78V546.18C242.22 549.58 241.22 552.48 237.42 552.38C233.62 552.28 233.32 549.28 233.32 546.18C233.42 536.58 233.42 526.88 233.32 517.28C233.32 514.28 233.92 511.88 237.42 511.68C241.22 511.48 242.12 514.08 242.12 517.18C242.22 520.98 242.22 524.68 242.22 528.78Z" fill="#DF212C"/>
<path d="M129.3 286.58C121.9 289.18 114.6 291.78 107.2 294.48C93.8585 299.501 79.229 299.958 65.6 295.78C56 292.88 46.4 289.48 35.7 291.18C71.7 268.98 88.1 233.88 100.6 194.98C95.9 194.18 91.5 193.68 87.2 192.78C81 191.48 74.8 190.38 68.8 188.48C63.2 186.68 58.7 183.18 57.3 177.08C55.8 170.48 58.8 165.18 66.1 161.48C76.1 156.48 86.2 151.88 96.3 146.98C103.2 143.68 110.2 140.48 116.9 136.78C118.985 135.541 120.549 133.586 121.3 131.28C127.5 108.88 133.5 86.38 139.5 63.88C144.7 44.48 164.2 26.18 183.2 23.88C187.6 24.68 191.4 25.18 195.1 25.78C220.7 29.98 240.4 43.38 253.6 65.58C266.1 86.58 271.1 110.08 271.1 134.28C271.1 158.98 269.4 183.68 268.2 208.38C267.9 215.48 266.6 222.48 265.9 229.58C264.7 240.88 263 252.28 262.5 263.68C262.1 273.08 263 282.58 263.3 292.08C256.2 289.08 249.3 284.88 241.9 283.38C233.3 281.68 224.2 282.48 214.6 281.78C209.8 280.58 205.6 279.08 201.4 278.98C195.2 278.78 188.9 279.68 182.6 279.78C174.6 279.88 171.5 275.48 174.1 267.78C175.3 264.38 176.8 261.18 178.3 257.78C178.5 257.68 178.5 257.58 178.6 257.48C178.358 257.658 178.087 257.793 177.8 257.88C177.044 258.081 176.308 258.349 175.6 258.68C161 266.98 146.5 275.18 131.9 283.58C131 284.18 130.3 285.48 129.3 286.58ZM180.22 122.08C189.42 111.68 191.42 99.68 187.22 86.68C185.12 80.28 180.82 75.18 173.72 73.98C166.32 72.68 160.22 75.78 155.82 81.58C148.12 91.68 146.82 102.88 151.12 114.58C155.92 127.78 168.52 131.08 180.22 122.08ZM260.52 107.58C261.52 96.28 259.12 86.08 250.32 78.18C241.52 70.28 229.12 72.58 224.32 83.48C219.02 95.58 220.12 107.48 227.32 118.58C230.32 123.18 234.52 126.28 240.22 126.88C251.32 128.08 258.52 121.48 260.52 107.58ZM219.12 136.58C216.42 133.98 213.62 133.68 211.02 136.68C206.22 142.08 205.52 141.88 200.22 136.98C199.263 136.256 198.147 135.769 196.965 135.561C195.782 135.352 194.568 135.427 193.42 135.78C192.02 136.38 191.02 139.98 191.32 141.98C192.52 148.28 198.52 152.08 206.02 151.98C212.82 151.88 218.92 147.48 220.12 141.58C220.4 140.18 219.8 138.68 219.1 136.58H219.12Z" fill="#FDFEFF"/>
<path d="M263.6 292.18C263.1 282.48 262.2 272.98 262.6 263.58C263.1 252.18 264.8 240.88 266 229.48C266.8 222.38 268 215.38 268.3 208.28C269.5 183.58 271.2 158.88 271.2 134.18C271.2 110.08 266.2 86.58 253.7 65.48C240.5 43.28 220.8 29.98 195.2 25.68C191.5 25.08 187.7 24.58 183.7 23.78C192.4 19.58 201.8 19.18 211.3 19.88C226.3 21.08 240.2 25.78 252.1 35.38C261.1 42.68 267.7 51.78 270.6 63.08C277.5 90.08 284.3 117.08 291.5 144.78C294.2 151.58 296.1 157.98 298.8 163.98C302.5 172.08 309.2 174.28 316.9 169.88C325.7 164.98 334.1 159.28 342.7 153.98C346.9 151.38 351.2 149.08 355.4 146.58C357.7 151.88 356.1 157.08 353.5 161.38C348.5 169.78 342.7 177.78 337 185.68C332.9 191.38 326.5 192.88 319.9 193.58C316 193.98 312 194.48 307.2 194.98C309.5 201.98 311.5 208.58 314 214.98C322.6 237.88 334.5 258.58 352.8 275.28C356.7 278.88 356.6 281.18 352.1 282.48C343.7 284.98 337.2 290.38 330.5 295.48C311.4 310.18 291.7 306.88 272 297.08C268.991 295.834 266.165 294.186 263.6 292.18Z" fill="#E3ECF1"/>
<path d="M355.22 146.38C351.02 149.18 346.72 151.58 342.52 154.08C333.92 159.38 325.52 164.98 316.72 169.98C309.02 174.38 302.32 172.08 298.62 164.08C295.82 158.08 294.02 151.68 291.52 145.18C305.42 141.68 319.42 138.28 333.52 135.28C343.22 133.33 351.7 137.68 355.22 146.38Z" fill="#FDFEFF"/>
<path d="M129.8 286.68C130.262 285.397 131.098 284.282 132.2 283.48C146.7 275.08 161.3 266.88 175.9 258.58C176.608 258.249 177.344 257.981 178.1 257.78H178.5C177.1 261.08 175.6 264.38 174.4 267.68C171.8 275.38 174.9 279.78 182.9 279.68C189.2 279.58 195.4 278.68 201.7 278.88C205.9 278.98 210 280.48 214.4 281.68C202.2 286.68 189.9 291.48 177.4 295.88C168.3 299.08 159.7 298.28 151.8 291.68C145.5 286.58 137.9 286.38 129.8 286.68Z" fill="#E3ECF1"/>
<path d="M179.9 122.38C168.5 131.08 155.9 127.78 151.1 114.68C146.8 102.98 148.2 91.68 155.8 81.68C160.2 75.88 166.2 72.68 173.7 74.08C180.8 75.38 185.1 80.38 187.2 86.78C191.4 99.68 189.4 111.68 179.9 122.38Z" fill="#373A43"/>
<path d="M260.5 107.98C258.5 121.38 251.3 128.08 240.3 126.88C234.6 126.28 230.4 123.18 227.4 118.58C220.1 107.48 219 95.5801 224.4 83.4801C229.2 72.5801 241.5 70.1801 250.4 78.1801C259.1 86.0801 261.6 96.3301 260.5 107.98Z" fill="#373A43"/>
<path d="M219.4 136.88C219.8 138.58 220.5 140.18 220.2 141.48C219 147.38 212.9 151.78 206.1 151.88C198.6 151.98 192.6 148.18 191.4 141.88C191 139.88 192.1 136.38 193.5 135.68C195.3 134.88 198.8 135.58 200.3 136.88C205.5 141.78 206.3 141.98 211.1 136.58C213.7 133.68 216.4 133.98 219.4 136.88Z" fill="#373A43"/>
<path d="M178.4 257.78C178.5 257.68 178.7 257.58 178.8 257.38C178.8 257.48 178.7 257.58 178.5 257.68L178.4 257.78Z" fill="#E3ECF1"/>
</g>
<defs>
<clipPath id="clip0_30_471">
<rect width="396.5" height="552.48" fill="white"/>
</clipPath>
</defs>
</svg>
